<?xml version="1.0" encoding="UTF-8" standalone="no"?>
<!DOCTYPE svg PUBLIC "-//W3C//DTD SVG 1.1//EN" "http://www.w3.org/Graphics/SVG/1.1/DTD/svg11.dtd">
<!-- Created with Vectornator (http://vectornator.io/) -->
<svg height="100%" stroke-miterlimit="10" style="fill-rule:nonzero;clip-rule:evenodd;stroke-linecap:round;stroke-linejoin:round;" version="1.1" viewBox="0 0 810.486 156.502" width="100%" xml:space="preserve" xmlns="http://www.w3.org/2000/svg" xmlns:vectornator="http://vectornator.io" xmlns:xlink="http://www.w3.org/1999/xlink">
<defs>
<linearGradient gradientTransform="matrix(0.517417 -0.114803 0.2556 1.15198 -70.2092 -25.4996)" gradientUnits="userSpaceOnUse" id="LinearGradient" x1="65.52" x2="441.68" y1="114.75" y2="114.75">
<stop offset="0" stop-color="#816030"/>
<stop offset="0.06" stop-color="#816030"/>
<stop offset="0.49" stop-color="#e3d793"/>
<stop offset="0.56" stop-color="#e3d793"/>
<stop offset="0.95" stop-color="#715429"/>
<stop offset="1" stop-color="#715429"/>
</linearGradient>
</defs>
<g id="Layer-1" vectornator:layerName="Layer 1">
<g opacity="1">
<clipPath id="ClipPath">
<path d="M66.65 85.24C61.44 77.71 53.77 69.34 46.43 69.34C35.27 69.34 23.82 76.07 23.82 87.73C23.82 97.58 31.86 105.82 45.33 105.82C66.93 105.82 88.44 79.99 92.86 46.03C90.85 32.16 84.02 21.71 67.64 21.71C57.59 21.71 48.55 28.64 48.55 37.59C48.55 43.02 51.96 48.34 58 51.76C49.56 50.86 44.94 46.33 44.94 38.7C44.92 30.05 53.77 20 68.04 20C97.08 20 98.89 49.95 98.89 61.2C98.89 67.63 98.29 73.26 97.38 77.98C105.82 61.1 118.79 46.83 129.04 35.77C130.55 33.86 132.05 32.15 133.56 30.75C135.77 28.64 138.89 27.13 140.7 27.84C129.24 34.27 114.47 70.55 114.47 90.45C114.47 101 119.9 102.11 124.12 100.8C122.11 102.51 120.2 103.21 118.49 103.21C112.96 103.21 108.74 98.19 108.74 86.83C108.74 74.67 114.67 58.59 122.11 45.93C111.05 58.69 98.8 75.28 92.76 93.47C91.86 95.58 89.85 96.99 87.94 96.38C90.85 83.92 94.07 67.34 93.47 52.97C87.04 85.43 64.93 109.15 42.22 109.15C27.95 109.15 20.01 101.21 20.01 90.16C20.01 76.79 33.62 64.99 47.39 65.13C54.44 65.7 58.38 69.64 63.39 75.71C64.01 76.46 68.53 82.83 69.42 84.13M69.42 84.13C71.68 87.28 74.88 92.11 75.89 92.99C77.86 94.71 88.19 103.14 104.05 103.14C107.77 103.14 111.49 102.74 115.21 102.03C115.91 100.82 116.52 99.62 117.22 98.31C129.38 74.49 140.84 46.76 159.03 46.76C164.46 46.76 167.97 50.98 167.97 56.91C167.97 75.4 147.87 94.09 123.95 101.43C117.72 112.18 107.67 120.02 100.73 124.24C117.31 122.03 126.86 129.67 140.33 129.67C145.56 129.67 150.68 128.06 156.31 124.24C150.48 132.48 143.35 134.59 135.81 134.59C121.34 134.59 113.3 121.83 96.11 126.75C94.6 126.95 93.8 126.35 93.7 125.75C100.63 123.34 107.57 115.5 114.3 103.74C110.48 104.44 106.66 104.74 102.94 104.74C89.85 104.74 79.57 101.27 73.91 95.29C70.69 92.03 65.44 83.27 65.44 83.27M125.05 99.51C147.06 91.97 166.25 74.29 166.25 56.9C166.25 51.67 163.54 48.46 159.01 48.46C143.63 48.46 137.3 75.09 125.24 99.01C125.14 99.21 125.04 99.31 125.04 99.51L125.05 99.51Z"/>
</clipPath>
<g clip-path="url(#ClipPath)">
<path d="M-10.4779 15.7412L162.603-22.6616L162.603-22.6616L198.432 138.821L198.432 138.821L25.3515 177.224L25.3515 177.224L-10.4779 15.7412L-10.4779 15.7412Z" fill="url(#LinearGradient)" fill-rule="nonzero" opacity="1" stroke="none"/>
</g>
</g>
<g opacity="1">
<path d="M254.319 37.3512C253.633 37.5863 253.155 38.0368 252.906 38.7224C252.657 39.3884 252.532 40.4853 252.532 41.974L252.532 71.2972C252.532 72.8054 252.657 73.8828 252.906 74.5488C253.155 75.2147 253.633 75.6653 254.319 75.9003C255.005 76.1354 256.107 76.2921 257.624 76.3704L257.624 77.5457C255.691 77.4282 253.052 77.3694 249.664 77.3694C246.068 77.3694 243.387 77.4282 241.641 77.5457L241.641 76.3704C243.137 76.2921 244.239 76.1354 244.925 75.9003C245.611 75.6653 246.089 75.2147 246.338 74.5488C246.587 73.8828 246.712 72.7858 246.712 71.2972L246.712 39.6039L231.581 77.8591L230.583 77.8591L214.766 39.4863L214.766 70.7095C214.766 72.2374 214.912 73.3931 215.182 74.1374C215.452 74.8817 215.992 75.4302 216.782 75.7632C217.572 76.0962 218.819 76.3117 220.482 76.39L220.482 77.5653C218.985 77.4478 216.845 77.389 214.08 77.389C211.565 77.389 209.632 77.4478 208.24 77.5653L208.24 76.39C209.715 76.3117 210.796 76.1158 211.503 75.7632C212.21 75.4302 212.688 74.8817 212.937 74.0982C213.186 73.3343 213.311 72.1982 213.311 70.6899L213.311 41.9544C213.311 40.4657 213.186 39.3688 212.937 38.7028C212.688 38.0368 212.21 37.5863 211.524 37.3317C210.838 37.0966 209.736 36.9399 208.24 36.8615L208.24 35.6863C209.612 35.8038 211.565 35.8626 214.08 35.8626C216.263 35.8626 218.029 35.8038 219.422 35.6863L233.223 69.926L246.712 35.8626L249.664 35.8626C253.052 35.8626 255.712 35.8038 257.624 35.6863L257.624 36.8615C256.128 36.9399 255.026 37.0966 254.319 37.3317L254.319 37.3512Z" fill="#ffffff" fill-rule="nonzero" opacity="1" stroke="none"/>
<path d="M299.775 76.5663L299.775 77.5457C298.383 77.4478 296.512 77.4086 294.184 77.4086C291.191 77.4086 288.947 77.4478 287.492 77.5457L287.492 76.5663C288.822 76.5075 289.757 76.3508 290.339 76.0962C290.921 75.8415 291.212 75.391 291.212 74.7446C291.212 74.1962 291.004 73.4126 290.589 72.4332L287.409 64.3434L274.751 64.3434L272.61 69.5734C271.903 71.3559 271.571 72.6879 271.571 73.6085C271.571 74.6271 271.945 75.3714 272.693 75.822C273.441 76.2921 274.584 76.5271 276.123 76.5663L276.123 77.5457C274.127 77.4478 272.132 77.4086 270.116 77.4086C268.536 77.4086 267.247 77.4478 266.187 77.5457L266.187 76.5663C267.933 76.1745 269.305 74.7446 270.324 72.2765L282.607 42.4049L283.439 42.4049L296.201 73.3931C297.032 75.4302 298.237 76.4879 299.817 76.5467L299.775 76.5663ZM286.972 63.364L281.111 48.6339L275.146 63.364C275.146 63.364 286.972 63.364 286.972 63.364Z" fill="#ffffff" fill-rule="nonzero" opacity="1" stroke="none"/>
<path d="M338.165 75.0972C337.354 76.2137 336.564 77.0168 335.754 77.5065C334.943 77.9962 333.883 78.2509 332.553 78.2509C331.119 78.2509 329.955 77.8591 329.02 77.0756C328.105 76.2921 327.398 74.9013 326.962 72.9425L325.819 68.0064C325.403 66.3022 325.008 64.9898 324.634 64.0692C324.26 63.1486 323.719 62.4042 322.992 61.8558C322.265 61.3073 321.225 61.0135 319.895 61.0135L314.928 61.0135L314.928 72.3549C314.928 73.6085 315.031 74.5096 315.239 75.058C315.447 75.6065 315.842 75.9983 316.424 76.1941C317.006 76.39 317.921 76.5271 319.168 76.5859L319.168 77.5653C317.567 77.4673 315.343 77.4282 312.537 77.4282C309.544 77.4282 307.3 77.4673 305.845 77.5653L305.845 76.5859C307.092 76.5271 308.006 76.39 308.588 76.1941C309.17 75.9983 309.565 75.6261 309.773 75.058C309.981 74.49 310.085 73.5889 310.085 72.3549L310.085 47.9091C310.085 46.6555 309.981 45.7545 309.773 45.206C309.565 44.6575 309.17 44.2658 308.588 44.0699C308.006 43.874 307.092 43.7369 305.845 43.6781L305.845 42.6987C307.32 42.7967 309.44 42.8554 312.226 42.8554L317.879 42.7967C318.544 42.7575 319.292 42.7575 320.124 42.7575C324.177 42.7575 327.274 43.5606 329.456 45.1472C331.638 46.7339 332.719 48.8102 332.719 51.337C332.719 52.6102 332.387 53.9031 331.742 55.2154C331.098 56.5082 330.017 57.6835 328.5 58.7217C326.983 59.7598 325.008 60.4454 322.576 60.8176L323.2 60.9155C325.507 61.2877 327.17 61.9341 328.209 62.8939C329.248 63.8537 330.017 65.362 330.516 67.4383L331.825 72.4724C332.179 73.9807 332.532 75.0384 332.927 75.6261C333.301 76.2137 333.842 76.5075 334.486 76.5075C335.068 76.5075 335.567 76.3704 335.982 76.057C336.398 75.7436 336.855 75.2931 337.375 74.6271L338.165 75.1756L338.165 75.0972ZM316.382 44.0111C315.842 44.2462 315.468 44.6575 315.26 45.2452C315.052 45.8328 314.948 46.7339 314.948 47.9091L314.948 60.0341L318.461 60.0341C321.911 60.0341 324.281 59.3093 325.569 57.8598C326.858 56.4103 327.502 54.4123 327.502 51.8463C327.502 49.1628 326.816 47.1256 325.465 45.7349C324.114 44.3441 321.89 43.6586 318.835 43.6586C317.754 43.6586 316.944 43.7761 316.403 44.0111L316.382 44.0111Z" fill="#ffffff" fill-rule="nonzero" opacity="1" stroke="none"/>
<path d="M371.524 43.6586L350.656 76.4292L360.903 76.4292C363.065 76.4292 364.707 76.1354 365.85 75.5673C366.972 74.9993 367.804 74.059 368.323 72.7858C368.843 71.5126 369.238 69.6518 369.487 67.2229L370.672 67.2229C370.568 68.2414 370.527 69.593 370.527 71.258C370.527 73.1384 370.651 75.2343 370.901 77.5653C368.323 77.4673 363.979 77.4282 357.89 77.4282C351.8 77.4282 347.622 77.4673 344.982 77.5653L344.982 76.5859L365.996 43.8153L355.811 43.8153C353.649 43.8153 352.007 44.1091 350.864 44.6771C349.721 45.2452 348.911 46.1854 348.37 47.4586C347.851 48.7318 347.456 50.5927 347.227 53.0216L346.021 53.0216C346.125 51.9638 346.167 50.6319 346.167 48.9865C346.167 47.106 346.042 45.0101 345.793 42.6792C348.37 42.7771 352.714 42.8359 358.804 42.8359C364.894 42.8359 368.968 42.7771 371.503 42.6792L371.503 43.6586L371.524 43.6586Z" fill="#ffffff" fill-rule="nonzero" opacity="1" stroke="none"/>
<path d="M408.376 77.5653C406.006 77.4674 402.015 77.4282 396.404 77.4282C389.711 77.4282 384.66 77.4674 381.231 77.5653L381.231 76.5859C382.478 76.5271 383.392 76.39 383.974 76.1941C384.556 75.9983 384.93 75.6261 385.159 75.058C385.388 74.49 385.471 73.5889 385.471 72.3549L385.471 47.9091C385.471 46.6555 385.367 45.7545 385.159 45.206C384.951 44.6575 384.556 44.2658 383.974 44.0699C383.392 43.874 382.478 43.7369 381.231 43.6781L381.231 42.6987C384.639 42.7967 389.711 42.8555 396.404 42.8555C401.517 42.8555 405.175 42.7967 407.336 42.6987C407.087 44.873 406.962 46.8122 406.962 48.5164C406.962 49.7896 407.004 50.8082 407.128 51.5721L405.923 51.5721C405.674 49.437 405.362 47.8504 404.988 46.8122C404.613 45.7741 403.969 45.0297 403.055 44.54C402.161 44.0699 400.768 43.8349 398.918 43.8349L394.574 43.8349C393.327 43.8349 392.413 43.9328 391.831 44.1091C391.249 44.2854 390.854 44.6575 390.646 45.2256C390.438 45.7936 390.334 46.6947 390.334 47.9287L390.334 59.564L393.785 59.564C395.011 59.564 395.946 59.2897 396.611 58.7413C397.276 58.1928 397.713 57.566 397.942 56.8217C398.17 56.0773 398.357 55.1567 398.482 54.0402L398.648 53.0608L399.854 53.0608C399.75 54.4319 399.688 55.9794 399.688 57.6835L399.688 60.0537C399.688 61.7186 399.791 64.0692 399.999 67.0466L398.794 67.0466C398.752 66.8115 398.648 66.028 398.482 64.6568C398.316 63.2857 397.838 62.2671 397.048 61.5815C396.258 60.896 395.177 60.5434 393.785 60.5434L390.334 60.5434L390.334 72.3745C390.334 73.6281 390.438 74.5292 390.646 75.0776C390.854 75.6261 391.249 75.9983 391.831 76.1941C392.413 76.3704 393.327 76.4684 394.574 76.4684L398.399 76.4684C400.56 76.4684 402.202 76.1941 403.346 75.6457C404.489 75.0972 405.299 74.2353 405.84 73.0405C406.359 71.8456 406.734 70.0827 406.983 67.7517L408.188 67.7517C408.085 68.6332 408.022 69.8281 408.022 71.2971C408.022 73.1776 408.147 75.2735 408.396 77.6045L408.376 77.5653Z" fill="#ffffff" fill-rule="nonzero" opacity="1" stroke="none"/>
<path d="M451.15 43.6586C449.924 43.7173 449.03 43.8936 448.428 44.1678C447.825 44.4421 447.43 44.9122 447.222 45.539C447.014 46.1658 446.91 47.1256 446.91 48.3792L446.91 77.8003L445.705 77.8003L423.735 45.8132L423.735 71.826C423.735 73.0992 423.839 74.059 424.068 74.6859C424.297 75.3127 424.733 75.7632 425.398 76.0374C426.063 76.3117 427.082 76.488 428.474 76.5467L428.474 77.5261C427.227 77.4282 425.44 77.389 423.133 77.389C421.054 77.389 419.412 77.4282 418.269 77.5261L418.269 76.5467C419.495 76.488 420.389 76.3117 420.992 76.0374C421.574 75.7632 421.989 75.2931 422.197 74.6663C422.405 74.0395 422.509 73.0796 422.509 71.826L422.509 47.87C422.509 46.6163 422.405 45.7153 422.197 45.1668C421.989 44.6184 421.595 44.2266 421.013 44.0307C420.431 43.8348 419.516 43.6977 418.269 43.639L418.269 42.6596C419.412 42.7575 421.033 42.8163 423.133 42.8163C424.712 42.8163 426.063 42.7575 427.206 42.6596L445.663 69.4755L445.663 48.3792C445.663 47.106 445.559 46.1462 445.331 45.5194C445.102 44.8926 444.666 44.4421 444 44.1678C443.335 43.8936 442.317 43.7173 440.924 43.6586L440.924 42.6792C442.171 42.7771 443.959 42.8359 446.245 42.8359C448.344 42.8359 449.966 42.7771 451.109 42.6792L451.109 43.6586L451.15 43.6586Z" fill="#ffffff" fill-rule="nonzero" opacity="1" stroke="none"/>
<path d="M491.203 76.5663L491.203 77.5457C489.81 77.4478 487.939 77.4086 485.611 77.4086C482.618 77.4086 480.374 77.4478 478.919 77.5457L478.919 76.5663C480.249 76.5075 481.205 76.3508 481.766 76.0962C482.348 75.8415 482.639 75.391 482.639 74.7446C482.639 74.1962 482.431 73.4126 482.016 72.4332L478.836 64.3434L466.178 64.3434L464.037 69.5734C463.33 71.3559 462.998 72.6879 462.998 73.6085C462.998 74.6271 463.372 75.3714 464.12 75.822C464.868 76.2921 466.011 76.5271 467.55 76.5663L467.55 77.5457C465.554 77.4478 463.559 77.4086 461.543 77.4086C459.984 77.4086 458.674 77.4478 457.614 77.5457L457.614 76.5663C459.36 76.1745 460.732 74.7446 461.751 72.2765L474.034 42.4049L474.866 42.4049L487.628 73.3931C488.459 75.4302 489.664 76.4879 491.244 76.5467L491.203 76.5663ZM478.399 63.364L472.538 48.6339L466.573 63.364L478.378 63.364L478.399 63.364Z" fill="#ffffff" fill-rule="nonzero" opacity="1" stroke="none"/>
<path d="M536.659 36.8811C535.162 36.9595 534.061 37.1162 533.354 37.3512C532.668 37.5863 532.19 38.0368 531.941 38.7224C531.691 39.3884 531.566 40.4853 531.566 41.974L531.566 71.2971C531.566 72.8054 531.691 73.8828 531.941 74.5487C532.19 75.2147 532.668 75.6653 533.354 75.8807C534.04 76.0962 535.141 76.2137 536.659 76.2137L541.231 76.2137C543.829 76.2137 545.804 75.8611 547.155 75.1756C548.506 74.49 549.504 73.3735 550.127 71.826C550.751 70.2982 551.208 68.0651 551.52 65.1465L552.954 65.1465C552.829 66.361 552.767 67.9868 552.767 70.0043C552.767 72.257 552.912 74.7838 553.203 77.5653C550.356 77.4478 545.554 77.389 538.841 77.389C530.818 77.389 524.749 77.4478 520.634 77.5653L520.634 76.39C522.13 76.3117 523.232 76.155 523.918 75.9199C524.604 75.6848 525.082 75.2343 525.331 74.5683C525.58 73.9023 525.705 72.8054 525.705 71.3167L525.705 41.9936C525.705 40.5049 525.58 39.408 525.331 38.742C525.082 38.076 524.604 37.6255 523.918 37.3708C523.232 37.1358 522.13 36.9791 520.634 36.9007L520.634 35.7254C522.4 35.843 525.061 35.9017 528.657 35.9017C532.003 35.9017 534.663 35.843 536.617 35.7254L536.617 36.9007L536.659 36.8811Z" fill="#ffffff" fill-rule="nonzero" opacity="1" stroke="none"/>
<path d="M576.711 43.6586C575.464 43.7173 574.549 43.8544 573.967 44.0503C573.385 44.2462 572.99 44.6184 572.782 45.1864C572.575 45.7545 572.471 46.6555 572.471 47.8896L572.471 72.3353C572.471 73.5889 572.575 74.49 572.782 75.0384C572.99 75.5869 573.385 75.9787 573.967 76.1745C574.549 76.3704 575.464 76.5075 576.711 76.5663L576.711 77.5457C575.11 77.4478 572.886 77.4086 570.08 77.4086C567.087 77.4086 564.843 77.4478 563.388 77.5457L563.388 76.5663C564.635 76.5075 565.549 76.3704 566.131 76.1745C566.713 75.9787 567.087 75.6065 567.316 75.0384C567.545 74.4704 567.628 73.5693 567.628 72.3353L567.628 47.8896C567.628 46.6359 567.524 45.7349 567.316 45.1864C567.108 44.638 566.713 44.2462 566.131 44.0503C565.549 43.8544 564.635 43.7173 563.388 43.6586L563.388 42.6792C564.863 42.7771 567.087 42.8359 570.08 42.8359C572.866 42.8359 575.09 42.7771 576.711 42.6792L576.711 43.6586Z" fill="#ffffff" fill-rule="nonzero" opacity="1" stroke="none"/>
<path d="M614.726 48.9865C614.726 50.6319 614.788 51.9834 614.892 53.0216L613.687 53.0216C613.396 50.4948 613.063 48.6143 612.647 47.3803C612.232 46.1462 611.504 45.2452 610.444 44.6771C609.384 44.1091 607.784 43.8153 605.643 43.8153L602.816 43.8153L602.816 71.8456C602.816 73.2364 602.962 74.2353 603.232 74.8622C603.502 75.489 604.001 75.9199 604.687 76.1354C605.394 76.3704 606.516 76.5075 608.096 76.5859L608.096 77.5653C606.287 77.4674 603.71 77.4282 600.405 77.4282C596.913 77.4282 594.336 77.4674 592.673 77.5653L592.673 76.5859C594.232 76.5271 595.375 76.3704 596.082 76.1354C596.768 75.9003 597.267 75.4694 597.537 74.8622C597.828 74.2353 597.953 73.2364 597.953 71.8456L597.953 43.8153L595.126 43.8153C592.964 43.8153 591.364 44.1091 590.325 44.6771C589.285 45.2452 588.558 46.1462 588.122 47.3803C587.685 48.6143 587.353 50.4948 587.082 53.0216L585.877 53.0216C585.981 51.9638 586.043 50.6319 586.043 48.9865C586.043 47.106 585.918 45.0101 585.669 42.6792C588.558 42.7771 593.484 42.8359 600.426 42.8359C607.368 42.8359 612.232 42.7771 615.121 42.6792C614.871 45.0101 614.747 47.106 614.747 48.9865L614.726 48.9865Z" fill="#ffffff" fill-rule="nonzero" opacity="1" stroke="none"/>
<path d="M651.182 77.5653C648.813 77.4674 644.822 77.4282 639.21 77.4282C632.518 77.4282 627.467 77.4674 624.038 77.5653L624.038 76.5859C625.285 76.5271 626.199 76.39 626.781 76.1941C627.363 75.9983 627.737 75.6261 627.966 75.058C628.194 74.49 628.278 73.5889 628.278 72.3549L628.278 47.9091C628.278 46.6555 628.174 45.7545 627.966 45.206C627.758 44.6575 627.363 44.2658 626.781 44.0699C626.199 43.874 625.285 43.7369 624.038 43.6781L624.038 42.6987C627.446 42.7967 632.518 42.8555 639.21 42.8555C644.323 42.8555 647.981 42.7967 650.143 42.6987C649.894 44.873 649.769 46.8122 649.769 48.5164C649.769 49.7896 649.811 50.8082 649.935 51.5721L648.73 51.5721C648.48 49.437 648.169 47.8504 647.794 46.8122C647.42 45.7741 646.776 45.0297 645.861 44.54C644.968 44.0699 643.575 43.8349 641.725 43.8349L637.381 43.8349C636.134 43.8349 635.22 43.9328 634.638 44.1091C634.056 44.2854 633.661 44.6575 633.453 45.2256C633.245 45.7936 633.141 46.6947 633.141 47.9287L633.141 59.564L636.591 59.564C637.818 59.564 638.753 59.2897 639.418 58.7413C640.083 58.1928 640.52 57.566 640.748 56.8217C640.977 56.0773 641.164 55.1567 641.289 54.0402L641.455 53.0608L642.661 53.0608C642.557 54.4319 642.494 55.9794 642.494 57.6835L642.494 60.0537C642.494 61.7186 642.598 64.0692 642.806 67.0466L641.601 67.0466C641.559 66.8115 641.455 66.028 641.289 64.6568C641.123 63.2857 640.644 62.2671 639.855 61.5815C639.065 60.896 637.984 60.5434 636.591 60.5434L633.141 60.5434L633.141 72.3745C633.141 73.6281 633.245 74.5292 633.453 75.0776C633.661 75.6261 634.056 75.9983 634.638 76.1941C635.22 76.3704 636.134 76.4684 637.381 76.4684L641.206 76.4684C643.367 76.4684 645.009 76.1941 646.152 75.6457C647.296 75.0972 648.106 74.2353 648.647 73.0405C649.166 71.8456 649.54 70.0827 649.79 67.7517L650.995 67.7517C650.891 68.6332 650.829 69.8281 650.829 71.2971C650.829 73.1776 650.954 75.2735 651.203 77.6045L651.182 77.5653Z" fill="#ffffff" fill-rule="nonzero" opacity="1" stroke="none"/>
<path d="M706.345 42.6596L706.345 43.639C704.391 44.0699 703.019 45.4998 702.209 47.9287L692.315 77.7808L691.484 77.7808L682.38 52.3948L674.066 77.7808L673.235 77.7808L662.157 46.7926C661.429 44.7555 660.224 43.6977 658.54 43.639L658.54 42.6596C659.974 42.7575 661.824 42.8163 664.131 42.8163C666.646 42.8163 668.517 42.7575 669.785 42.6596L669.785 43.639C668.849 43.6977 668.184 43.874 667.789 44.1287C667.415 44.3833 667.207 44.7947 667.207 45.3627C667.207 45.8916 667.394 46.6947 667.789 47.772L675.417 69.7497L681.798 50.671L680.385 46.773C679.678 44.7359 678.66 43.6781 677.288 43.6194L677.288 42.64C678.535 42.7379 680.239 42.7967 682.359 42.7967C685.352 42.7967 687.597 42.7379 689.052 42.64L689.052 43.6194C687.722 43.6781 686.807 43.8153 686.288 44.0307C685.768 44.2462 685.498 44.6967 685.498 45.3823C685.498 45.9699 685.664 46.7535 686.017 47.7524L693.541 69.6909L699.985 50.6123C700.546 49.0061 700.816 47.6741 700.816 46.6163C700.816 45.5586 700.463 44.7751 699.777 44.3246C699.07 43.874 697.948 43.639 696.368 43.6194L696.368 42.64C698.364 42.7379 700.359 42.7967 702.375 42.7967C703.934 42.7967 705.243 42.7379 706.303 42.64L706.345 42.6596Z" fill="#ffffff" fill-rule="nonzero" opacity="1" stroke="none"/>
<path d="M743.009 75.5086C743.716 75.9787 744.609 76.3313 745.649 76.5663L745.649 77.5457C743.965 77.4478 741.887 77.4086 739.372 77.4086C737.501 77.4086 735.693 77.4478 733.989 77.5457L733.989 76.5663C734.82 76.5271 735.443 76.4292 735.818 76.2725C736.192 76.1158 736.4 75.8611 736.4 75.5281C736.4 75.1952 736.233 74.8034 735.88 74.3529L728.252 63.5011C727.233 62.0516 726.381 61.1114 725.695 60.6609C725.01 60.2104 724.033 59.9557 722.765 59.897L722.765 72.3157C722.765 73.5694 722.869 74.4704 723.077 75.0189C723.284 75.5673 723.679 75.9591 724.261 76.155C724.843 76.3508 725.758 76.488 727.005 76.5467L727.005 77.5261C725.404 77.4282 723.18 77.389 720.375 77.389C717.382 77.389 715.137 77.4282 713.682 77.5261L713.682 76.5467C714.929 76.488 715.843 76.3508 716.425 76.155C717.007 75.9591 717.382 75.5869 717.61 75.0189C717.839 74.4508 717.922 73.5498 717.922 72.3157L717.922 47.87C717.922 46.6163 717.818 45.7153 717.61 45.1668C717.402 44.6184 717.007 44.2266 716.425 44.0307C715.843 43.8349 714.929 43.6977 713.682 43.639L713.682 42.6596C715.158 42.7575 717.382 42.8163 720.375 42.8163C723.16 42.8163 725.384 42.7575 727.005 42.6596L727.005 43.639C725.758 43.6977 724.843 43.8349 724.261 44.0307C723.679 44.2266 723.284 44.5988 723.077 45.1668C722.869 45.7349 722.765 46.6359 722.765 47.87L722.765 58.9176C725.301 58.8196 727.296 57.899 728.73 56.1557L733.739 50.1422C735.506 48.0658 736.4 46.4988 736.4 45.4215C736.4 44.2658 735.319 43.6781 733.157 43.639L733.157 42.6596C735.152 42.7575 737.148 42.8163 739.164 42.8163C741.18 42.8163 742.573 42.7575 743.612 42.6596L743.612 43.639C742.448 43.7957 741.388 44.1483 740.369 44.6967C739.351 45.2452 738.374 46.0875 737.439 47.2432L728.917 57.5464L741.055 73.5694C741.637 74.392 742.302 75.0384 743.009 75.5086Z" fill="#ffffff" fill-rule="nonzero" opacity="1" stroke="none"/>
<path d="M784.204 76.5663L784.204 77.5457C782.812 77.4478 780.941 77.4086 778.613 77.4086C775.62 77.4086 773.376 77.4478 771.921 77.5457L771.921 76.5663C773.251 76.5075 774.207 76.3508 774.768 76.0962C775.35 75.8415 775.641 75.391 775.641 74.7446C775.641 74.1962 775.433 73.4126 775.018 72.4332L771.837 64.3434L759.18 64.3434L757.039 69.5734C756.332 71.3559 756 72.6879 756 73.6085C756 74.6271 756.374 75.3714 757.122 75.822C757.87 76.2921 759.013 76.5271 760.551 76.5663L760.551 77.5457C758.556 77.4478 756.561 77.4086 754.545 77.4086C752.986 77.4086 751.676 77.4478 750.616 77.5457L750.616 76.5663C752.362 76.1745 753.734 74.7446 754.752 72.2765L767.036 42.4049L767.868 42.4049L780.629 73.3931C781.461 75.4302 782.666 76.4879 784.246 76.5467L784.204 76.5663ZM771.401 63.364L765.54 48.6339L759.574 63.364L771.38 63.364L771.401 63.364Z" fill="#ffffff" fill-rule="nonzero" opacity="1" stroke="none"/>
</g>
<path d="M203.712 89.8911L782.967 89.8911L782.967 89.8911L782.967 90.4525L782.967 90.4525L203.712 90.4525L203.712 90.4525L203.712 89.8911L203.712 89.8911Z" fill="#ffffff" fill-rule="nonzero" opacity="1" stroke="none"/>
<g opacity="1">
<path d="M233.263 116.656L229.872 120.223L229.872 129.71L226.209 129.71L226.209 101.642L229.872 101.642L229.872 115.519L242.197 101.642L246.615 101.642L235.705 114.029L247.487 129.69L243.107 129.69L233.282 116.636L233.263 116.656Z" fill="#ffffff" fill-rule="nonzero" opacity="1" stroke="none"/>
<path d="M270.645 129.69C270.431 129.278 270.276 128.553 270.141 127.495C268.494 129.22 266.536 130.082 264.269 130.082C262.234 130.082 260.568 129.494 259.269 128.338C257.971 127.181 257.312 125.692 257.312 123.908C257.312 121.732 258.126 120.047 259.754 118.851C261.382 117.655 263.688 117.048 266.633 117.048L270.063 117.048L270.063 115.401C270.063 114.147 269.695 113.167 268.959 112.422C268.222 111.677 267.137 111.305 265.703 111.305C264.443 111.305 263.397 111.619 262.544 112.265C261.692 112.912 261.265 113.677 261.265 114.598L257.719 114.598C257.719 113.559 258.087 112.559 258.824 111.579C259.56 110.599 260.548 109.835 261.788 109.267C263.029 108.698 264.405 108.424 265.916 108.424C268.28 108.424 270.16 109.031 271.497 110.227C272.834 111.423 273.532 113.089 273.59 115.186L273.59 124.79C273.59 126.711 273.823 128.22 274.307 129.357L274.307 129.67L270.606 129.67L270.645 129.69ZM264.792 126.966C265.897 126.966 266.943 126.672 267.932 126.103C268.92 125.535 269.637 124.77 270.083 123.849L270.083 119.576L267.311 119.576C262.99 119.576 260.839 120.85 260.839 123.418C260.839 124.535 261.207 125.417 261.943 126.044C262.68 126.672 263.629 126.985 264.792 126.985L264.792 126.966Z" fill="#ffffff" fill-rule="nonzero" opacity="1" stroke="none"/>
<path d="M290.295 108.835L290.411 111.462C291.981 109.463 294.054 108.463 296.593 108.463C300.953 108.463 303.143 110.952 303.182 115.931L303.182 129.71L299.655 129.71L299.655 115.911C299.655 114.402 299.306 113.304 298.627 112.579C297.949 111.854 296.922 111.501 295.508 111.501C294.364 111.501 293.356 111.815 292.504 112.422C291.651 113.03 290.973 113.853 290.488 114.853L290.488 129.71L286.961 129.71L286.961 108.855L290.295 108.855L290.295 108.835Z" fill="#ffffff" fill-rule="nonzero" opacity="1" stroke="none"/>
<path d="M324.556 127.162C325.816 127.162 326.921 126.77 327.851 126.005C328.8 125.241 329.304 124.28 329.42 123.124L332.754 123.124C332.695 124.32 332.288 125.456 331.533 126.534C330.777 127.612 329.789 128.475 328.529 129.122C327.289 129.768 325.952 130.082 324.556 130.082C321.746 130.082 319.518 129.141 317.851 127.24C316.185 125.339 315.371 122.752 315.371 119.459L315.371 118.871C315.371 116.832 315.739 115.029 316.475 113.461C317.212 111.873 318.278 110.658 319.653 109.776C321.029 108.894 322.657 108.463 324.537 108.463C326.843 108.463 328.781 109.169 330.292 110.56C331.823 111.952 332.637 113.775 332.734 116.009L329.401 116.009C329.304 114.657 328.8 113.559 327.889 112.677C326.979 111.815 325.855 111.383 324.518 111.383C322.735 111.383 321.339 112.03 320.351 113.343C319.363 114.637 318.878 116.538 318.878 119.008L318.878 119.674C318.878 122.085 319.363 123.928 320.351 125.221C321.339 126.515 322.735 127.162 324.537 127.162L324.556 127.162Z" fill="#ffffff" fill-rule="nonzero" opacity="1" stroke="none"/>
<path d="M353.082 130.082C350.291 130.082 348.005 129.161 346.26 127.299C344.516 125.437 343.625 122.967 343.625 119.851L343.625 119.204C343.625 117.126 344.013 115.284 344.788 113.657C345.563 112.03 346.667 110.756 348.063 109.835C349.458 108.914 350.989 108.463 352.617 108.463C355.291 108.463 357.384 109.365 358.876 111.148C360.368 112.932 361.105 115.499 361.105 118.812L361.105 120.301L347.133 120.301C347.171 122.36 347.772 124.026 348.915 125.28C350.059 126.554 351.493 127.181 353.256 127.181C354.496 127.181 355.543 126.926 356.415 126.417C357.268 125.907 358.043 125.221 358.682 124.378L360.833 126.084C359.109 128.769 356.512 130.121 353.062 130.121L353.082 130.082ZM352.636 111.383C351.221 111.383 350.02 111.913 349.051 112.951C348.082 113.99 347.481 115.46 347.268 117.361L357.597 117.361L357.597 117.087C357.5 115.284 357.016 113.873 356.144 112.873C355.272 111.873 354.109 111.383 352.636 111.383Z" fill="#ffffff" fill-rule="nonzero" opacity="1" stroke="none"/>
<path d="M376.821 129.69L373.294 129.69L373.294 100.094L376.821 100.094L376.821 129.69Z" fill="#ffffff" fill-rule="nonzero" opacity="1" stroke="none"/>
<path d="M403.002 129.69C402.788 129.278 402.633 128.553 402.498 127.495C400.85 129.22 398.893 130.082 396.626 130.082C394.591 130.082 392.925 129.494 391.626 128.338C390.328 127.181 389.669 125.692 389.669 123.908C389.669 121.732 390.483 120.047 392.111 118.851C393.738 117.655 396.045 117.048 398.99 117.048L402.42 117.048L402.42 115.401C402.42 114.147 402.052 113.167 401.316 112.422C400.579 111.677 399.494 111.305 398.06 111.305C396.8 111.305 395.754 111.619 394.901 112.265C394.049 112.912 393.622 113.677 393.622 114.598L390.076 114.598C390.076 113.559 390.444 112.559 391.18 111.579C391.917 110.599 392.905 109.835 394.145 109.267C395.386 108.698 396.762 108.424 398.273 108.424C400.637 108.424 402.498 109.031 403.854 110.227C405.191 111.423 405.889 113.089 405.947 115.186L405.947 124.79C405.947 126.711 406.18 128.22 406.664 129.357L406.664 129.67L402.963 129.67L403.002 129.69ZM397.149 126.966C398.254 126.966 399.3 126.672 400.288 126.103C401.277 125.535 401.994 124.77 402.44 123.849L402.44 119.576L399.668 119.576C395.347 119.576 393.196 120.85 393.196 123.418C393.196 124.535 393.564 125.417 394.3 126.044C395.037 126.672 395.986 126.985 397.149 126.985L397.149 126.966Z" fill="#ffffff" fill-rule="nonzero" opacity="1" stroke="none"/>
<path d="M429.279 112.05C428.737 111.952 428.175 111.913 427.554 111.913C425.248 111.913 423.679 112.912 422.845 114.892L422.845 129.69L419.318 129.69L419.318 108.835L422.748 108.835L422.807 111.246C423.969 109.384 425.597 108.443 427.729 108.443C428.407 108.443 428.93 108.541 429.299 108.718L429.299 112.03L429.279 112.05Z" fill="#ffffff" fill-rule="nonzero" opacity="1" stroke="none"/>
<path d="M440.325 103.308C440.325 102.74 440.499 102.25 440.848 101.838C441.197 101.427 441.72 101.25 442.399 101.25C443.077 101.25 443.6 101.446 443.968 101.838C444.336 102.23 444.511 102.72 444.511 103.308C444.511 103.896 444.336 104.367 443.968 104.759C443.6 105.151 443.096 105.327 442.399 105.327C441.701 105.327 441.197 105.131 440.848 104.759C440.499 104.386 440.325 103.896 440.325 103.308ZM444.143 129.69L440.616 129.69L440.616 108.835L444.143 108.835L444.143 129.69Z" fill="#ffffff" fill-rule="nonzero" opacity="1" stroke="none"/>
<path d="M470.323 129.69C470.11 129.278 469.955 128.553 469.819 127.495C468.172 129.22 466.215 130.082 463.948 130.082C461.913 130.082 460.246 129.494 458.948 128.338C457.65 127.181 456.991 125.692 456.991 123.908C456.991 121.732 457.805 120.047 459.432 118.851C461.06 117.655 463.366 117.048 466.312 117.048L469.742 117.048L469.742 115.401C469.742 114.147 469.374 113.167 468.637 112.422C467.901 111.677 466.816 111.305 465.382 111.305C464.122 111.305 463.076 111.619 462.223 112.265C461.37 112.912 460.944 113.677 460.944 114.598L457.398 114.598C457.398 113.559 457.766 112.559 458.502 111.579C459.239 110.599 460.227 109.835 461.467 109.267C462.707 108.698 464.083 108.424 465.595 108.424C467.979 108.424 469.839 109.031 471.176 110.227C472.513 111.423 473.211 113.089 473.269 115.186L473.269 124.79C473.269 126.711 473.521 128.22 473.986 129.357L473.986 129.67L470.285 129.67L470.323 129.69ZM464.471 126.966C465.576 126.966 466.622 126.672 467.61 126.103C468.599 125.535 469.316 124.77 469.761 123.849L469.761 119.576L466.99 119.576C462.669 119.576 460.518 120.85 460.518 123.418C460.518 124.535 460.886 125.417 461.622 126.044C462.359 126.672 463.308 126.985 464.471 126.985L464.471 126.966Z" fill="#ffffff" fill-rule="nonzero" opacity="1" stroke="none"/>
<path d="M519.952 122.359L508.325 122.359L505.709 129.71L501.93 129.71L512.53 101.642L515.728 101.642L526.347 129.71L522.588 129.71L519.933 122.359L519.952 122.359ZM509.43 119.341L518.867 119.341L514.139 106.209C514.139 106.209 509.43 119.341 509.43 119.341Z" fill="#ffffff" fill-rule="nonzero" opacity="1" stroke="none"/>
<path d="M536.482 119.086C536.482 115.891 537.238 113.324 538.73 111.364C540.223 109.404 542.199 108.443 544.622 108.443C547.044 108.443 548.943 109.286 550.358 110.952L550.358 100.074L553.885 100.074L553.885 129.67L550.648 129.67L550.474 127.436C549.059 129.18 547.102 130.062 544.583 130.062C542.064 130.062 540.242 129.063 538.75 127.103C537.258 125.143 536.482 122.536 536.482 119.361C536.482 119.361 536.482 119.086 536.482 119.086ZM540.009 119.498C540.009 121.869 540.494 123.712 541.463 125.045C542.432 126.378 543.769 127.044 545.455 127.044C547.683 127.044 549.331 126.025 550.358 124.006L550.358 114.421C549.311 112.461 547.683 111.481 545.494 111.481C543.769 111.481 542.412 112.148 541.463 113.5C540.513 114.853 540.009 116.852 540.009 119.498Z" fill="#ffffff" fill-rule="nonzero" opacity="1" stroke="none"/>
<path d="M585.414 124.79L589.386 108.855L592.913 108.855L586.906 129.71L584.057 129.71L579.038 113.912L574.155 129.71L571.306 129.71L565.318 108.855L568.826 108.855L572.876 124.457L577.682 108.855L580.53 108.855L585.433 124.79L585.414 124.79Z" fill="#ffffff" fill-rule="nonzero" opacity="1" stroke="none"/>
<path d="M603.359 119.067C603.359 117.028 603.746 115.186 604.541 113.559C605.335 111.932 606.44 110.678 607.854 109.776C609.269 108.875 610.897 108.443 612.699 108.443C615.509 108.443 617.776 109.423 619.52 111.383C621.265 113.343 622.117 115.97 622.117 119.223L622.117 119.478C622.117 121.517 621.73 123.34 620.974 124.947C620.218 126.554 619.113 127.808 617.679 128.71C616.245 129.612 614.598 130.062 612.757 130.062C609.967 130.062 607.699 129.082 605.955 127.122C604.211 125.162 603.359 122.555 603.359 119.321C603.359 119.321 603.359 119.067 603.359 119.067ZM606.905 119.498C606.905 121.811 607.428 123.673 608.494 125.064C609.56 126.456 610.974 127.162 612.757 127.162C614.54 127.162 615.974 126.456 617.021 125.025C618.067 123.594 618.61 121.615 618.61 119.067C618.61 116.773 618.067 114.931 617.001 113.5C615.935 112.069 614.501 111.364 612.718 111.364C610.936 111.364 609.579 112.069 608.513 113.461C607.447 114.853 606.905 116.871 606.905 119.478L606.905 119.498Z" fill="#ffffff" fill-rule="nonzero" opacity="1" stroke="none"/>
<path d="M640.101 120.047L637.892 122.379L637.892 129.71L634.365 129.71L634.365 100.113L637.892 100.113L637.892 118.008L639.771 115.715L646.186 108.855L650.468 108.855L642.446 117.557L651.399 129.69L647.271 129.69L640.081 120.027L640.101 120.047Z" fill="#ffffff" fill-rule="nonzero" opacity="1" stroke="none"/>
<path d="M674.653 129.69C674.44 129.278 674.285 128.553 674.149 127.495C672.502 129.22 670.545 130.082 668.277 130.082C666.243 130.082 664.576 129.494 663.278 128.338C661.979 127.181 661.32 125.692 661.32 123.908C661.32 121.732 662.134 120.047 663.762 118.851C665.39 117.655 667.696 117.048 670.642 117.048L674.072 117.048L674.072 115.401C674.072 114.147 673.703 113.167 672.967 112.422C672.231 111.677 671.145 111.305 669.711 111.305C668.452 111.305 667.405 111.619 666.553 112.265C665.7 112.912 665.274 113.677 665.274 114.598L661.727 114.598C661.727 113.559 662.096 112.559 662.832 111.579C663.568 110.599 664.557 109.835 665.797 109.267C667.037 108.698 668.413 108.424 669.925 108.424C672.308 108.424 674.169 109.031 675.506 110.227C676.843 111.423 677.54 113.089 677.599 115.186L677.599 124.79C677.599 126.711 677.851 128.22 678.316 129.357L678.316 129.67L674.614 129.67L674.653 129.69ZM668.801 126.966C669.905 126.966 670.952 126.672 671.94 126.103C672.928 125.535 673.645 124.77 674.091 123.849L674.091 119.576L671.32 119.576C666.998 119.576 664.847 120.85 664.847 123.418C664.847 124.535 665.216 125.417 665.952 126.044C666.688 126.672 667.638 126.985 668.801 126.985L668.801 126.966Z" fill="#ffffff" fill-rule="nonzero" opacity="1" stroke="none"/>
<path d="M699.245 127.162C700.504 127.162 701.609 126.77 702.539 126.005C703.469 125.241 703.992 124.28 704.109 123.124L707.442 123.124C707.384 124.32 706.977 125.456 706.221 126.534C705.465 127.612 704.477 128.475 703.217 129.122C701.958 129.768 700.64 130.082 699.245 130.082C696.435 130.082 694.206 129.141 692.54 127.24C690.873 125.339 690.059 122.752 690.059 119.459L690.059 118.871C690.059 116.832 690.427 115.029 691.164 113.461C691.9 111.893 692.966 110.658 694.342 109.776C695.718 108.894 697.346 108.463 699.225 108.463C701.531 108.463 703.469 109.169 704.981 110.56C706.492 111.952 707.326 113.775 707.423 116.009L704.089 116.009C703.992 114.657 703.489 113.559 702.578 112.677C701.667 111.815 700.543 111.383 699.206 111.383C697.423 111.383 696.028 112.03 695.039 113.343C694.051 114.657 693.567 116.538 693.567 119.008L693.567 119.674C693.567 122.085 694.051 123.928 695.039 125.221C696.008 126.515 697.423 127.162 699.225 127.162L699.245 127.162Z" fill="#ffffff" fill-rule="nonzero" opacity="1" stroke="none"/>
<path d="M724.941 120.047L722.732 122.379L722.732 129.71L719.205 129.71L719.205 100.113L722.732 100.113L722.732 118.008L724.611 115.715L731.026 108.855L735.309 108.855L727.286 117.557L736.239 129.69L732.111 129.69L724.922 120.027L724.941 120.047Z" fill="#ffffff" fill-rule="nonzero" opacity="1" stroke="none"/>
<path d="M759.513 129.69C759.299 129.278 759.144 128.553 759.009 127.495C757.362 129.22 755.404 130.082 753.137 130.082C751.102 130.082 749.436 129.494 748.137 128.338C746.839 127.181 746.18 125.692 746.18 123.908C746.18 121.732 746.994 120.047 748.622 118.851C750.25 117.655 752.556 117.048 755.501 117.048L758.931 117.048L758.931 115.401C758.931 114.147 758.563 113.167 757.827 112.422C757.09 111.677 756.005 111.305 754.571 111.305C753.311 111.305 752.265 111.619 751.412 112.265C750.56 112.912 750.133 113.677 750.133 114.598L746.587 114.598C746.587 113.559 746.955 112.559 747.692 111.579C748.428 110.599 749.416 109.835 750.657 109.267C751.897 108.698 753.273 108.424 754.784 108.424C757.168 108.424 759.028 109.031 760.365 110.227C761.702 111.423 762.4 113.089 762.458 115.186L762.458 124.79C762.458 126.711 762.71 128.22 763.175 129.357L763.175 129.67L759.474 129.67L759.513 129.69ZM753.66 126.966C754.765 126.966 755.811 126.672 756.8 126.103C757.788 125.535 758.505 124.77 758.951 123.849L758.951 119.576L756.179 119.576C751.858 119.576 749.707 120.85 749.707 123.418C749.707 124.535 750.075 125.417 750.812 126.044C751.548 126.672 752.498 126.985 753.66 126.985L753.66 126.966Z" fill="#ffffff" fill-rule="nonzero" opacity="1" stroke="none"/>
</g>
</g>
</svg>
